<?xml version="1.0" standalone="no"?>
<!DOCTYPE svg PUBLIC "-//W3C//DTD SVG 20010904//EN"
 "http://www.w3.org/TR/2001/REC-SVG-20010904/DTD/svg10.dtd">
<svg version="1.0" xmlns="http://www.w3.org/2000/svg"
 width="300.000000pt" height="320.000000pt" viewBox="0 0 300.000000 320.000000"
 preserveAspectRatio="xMidYMid meet">
<metadata>
Created by potrace 1.10, written by Peter Selinger 2001-2011
</metadata>
<g transform="translate(0.000000,320.000000) scale(0.100000,-0.100000)"
fill="#000000" stroke="none">
<path d="M1310 3165 c-8 -2 -49 -9 -90 -15 -109 -18 -299 -83 -406 -139 -396
-209 -671 -580 -760 -1026 -25 -124 -25 -395 -1 -520 119 -606 593 -1073 1190
-1170 135 -22 420 -17 537 10 571 128 999 562 1121 1136 29 138 32 408 5 544
-66 333 -240 634 -489 842 -188 159 -363 247 -612 310 -85 21 -128 25 -290 28
-104 2 -197 2 -205 0z m435 -40 c300 -61 553 -200 763 -420 364 -380 488 -924
326 -1423 -37 -114 -136 -306 -203 -395 -295 -394 -729 -604 -1206 -584 -402
17 -748 182 -1014 482 -253 286 -384 675 -351 1047 44 505 335 938 786 1167
144 73 280 113 499 145 62 9 323 -3 400 -19z"/>
<path d="M1384 3010 c-27 -11 -72 -65 -80 -96 -7 -27 10 -54 34 -54 13 0 12 3
-4 14 -19 15 -19 15 1 53 11 21 34 47 52 58 46 29 44 44 -3 25z"/>
<path d="M1514 2893 c-8 -83 -4 -116 12 -100 3 3 7 36 10 73 2 38 7 79 9 90 3
13 -1 24 -9 27 -10 4 -15 -17 -22 -90z"/>
<path d="M1447 2974 c-3 -4 -20 -35 -36 -69 -46 -94 -128 -151 -125 -87 1 26
-19 24 -25 -3 -4 -21 23 -45 51 -45 30 0 86 58 123 128 19 36 35 70 35 74 0
10 -14 11 -23 2z"/>
<path d="M1607 2918 c-4 -29 -9 -70 -13 -92 -5 -28 -4 -38 5 -35 7 3 12 8 12
12 -1 4 6 40 14 80 18 88 18 87 1 87 -9 0 -15 -18 -19 -52z"/>
<path d="M1027 2909 c-36 -19 -37 -20 -23 -47 7 -15 22 -53 32 -85 10 -31 23
-55 28 -53 6 3 28 10 49 17 20 7 37 16 37 21 0 11 -11 10 -40 -7 -14 -8 -28
-14 -32 -15 -3 0 -16 30 -29 68 -12 37 -24 72 -26 79 -3 6 12 14 36 18 23 4
39 11 35 16 -7 13 -23 10 -67 -12z"/>
<path d="M1799 2843 c-27 -87 -28 -93 -15 -93 5 -1 19 31 32 70 12 39 28 77
34 85 10 12 9 15 -7 15 -16 0 -24 -16 -44 -77z"/>
<path d="M1920 2796 c-22 -49 -40 -90 -40 -92 0 -11 30 -2 30 9 1 6 16 44 35
82 20 42 30 74 25 79 -6 6 -25 -25 -50 -78z"/>
<path d="M2045 2808 c14 -41 17 -136 5 -157 -6 -12 -8 -26 -4 -33 24 -39 46
128 24 186 -12 33 -36 36 -25 4z"/>
<path d="M801 2798 c1 -7 33 -42 72 -78 58 -53 72 -61 75 -47 2 11 -6 26 -20
35 -12 9 -43 36 -67 59 -45 44 -62 52 -60 31z"/>
<path d="M2125 2770 c-3 -5 -4 -10 0 -10 3 0 0 -10 -6 -22 -12 -23 -12 -23 10
-4 22 20 28 46 12 46 -6 0 -13 -4 -16 -10z"/>
<path d="M1975 2717 c-28 -45 -28 -47 -13 -47 7 0 21 18 30 40 20 48 11 52
-17 7z"/>
<path d="M678 2710 c-26 -27 -30 -36 -25 -68 13 -78 107 -120 155 -69 30 32
36 69 18 105 -35 68 -98 81 -148 32z m104 -17 c46 -50 45 -98 -2 -123 -39 -21
-110 41 -110 96 0 27 30 54 60 54 16 0 36 -11 52 -27z"/>
<path d="M2173 2680 c-38 -23 -53 -48 -53 -90 0 -32 40 -80 66 -80 8 0 14 -7
14 -15 0 -22 5 -19 49 28 23 25 36 46 31 51 -5 5 -21 -4 -39 -23 -24 -25 -35
-31 -53 -26 -35 11 -48 25 -48 52 0 53 49 103 103 103 18 0 19 2 7 10 -22 14
-41 12 -77 -10z"/>
<path d="M1365 2671 c-189 -25 -366 -104 -513 -230 -96 -82 -239 -278 -217
-299 4 -4 12 1 19 12 153 250 323 388 577 467 65 21 94 24 249 24 155 0 183
-3 248 -23 255 -81 436 -227 578 -468 24 -39 26 -3 3 41 -59 114 -190 251
-313 330 -179 114 -428 172 -631 146z"/>
<path d="M2274 2667 c3 -10 6 -30 6 -43 0 -15 6 -24 15 -24 21 0 18 31 -6 60
-15 18 -19 20 -15 7z"/>
<path d="M547 2633 c-12 -12 -7 -67 12 -138 20 -72 25 -135 9 -135 -4 0 -8 -4
-8 -10 0 -20 31 -9 40 14 5 15 26 32 54 44 44 20 72 53 61 72 -3 5 -24 -9 -45
-30 -47 -47 -66 -50 -73 -12 -2 15 -12 55 -21 90 -10 34 -16 70 -14 78 6 29
23 15 35 -28 9 -34 11 -37 12 -16 2 41 -16 78 -37 78 -10 0 -22 -3 -25 -7z"/>
<path d="M2351 2522 c-7 -13 -6 -36 4 -73 13 -47 13 -56 0 -68 -11 -12 -19
-12 -40 -3 -21 10 -25 18 -25 53 0 28 -4 39 -12 37 -27 -9 -20 -48 15 -83 38
-38 67 -44 87 -20 12 15 11 29 -6 123 -5 27 -3 32 13 32 28 0 43 -20 43 -58 0
-19 4 -31 10 -27 17 10 11 51 -11 79 -24 30 -64 34 -78 8z"/>
<path d="M1545 2296 c-27 -13 -72 -46 -99 -74 -48 -50 -50 -51 -77 -36 -95 48
-249 -32 -249 -130 0 -37 30 -90 60 -106 29 -15 39 -3 13 15 -29 20 -52 75
-46 107 14 72 123 125 211 102 30 -8 28 -18 -12 -67 -18 -23 -78 -107 -131
-187 -54 -80 -120 -172 -147 -206 l-49 -61 -57 20 c-64 23 -100 19 -132 -13
-26 -26 -25 -55 1 -81 29 -29 103 -22 158 14 l40 27 114 -60 c63 -33 136 -67
163 -75 59 -18 163 -20 199 -3 24 11 29 9 48 -15 25 -30 83 -57 125 -57 48 0
127 28 167 60 21 16 36 30 33 30 -3 0 -34 -13 -69 -29 -77 -34 -127 -43 -173
-30 -102 28 -99 144 9 294 81 115 235 214 312 202 88 -15 98 -88 22 -165 -61
-62 -164 -93 -197 -60 -17 17 -28 2 -12 -17 8 -10 30 -15 60 -15 143 0 277
173 195 250 -19 18 -40 25 -83 28 -51 3 -66 -1 -137 -37 -144 -72 -273 -234
-279 -350 -1 -24 -8 -46 -17 -52 -22 -14 -150 -11 -206 6 -44 13 -241 99 -252
110 -2 3 18 28 45 58 27 29 76 92 109 139 l60 85 60 5 c112 10 246 94 317 199
62 91 60 166 -4 188 -40 14 -35 15 -93 -13z m110 -29 c11 -18 12 -31 4 -60
-28 -104 -179 -232 -307 -261 -36 -8 -68 -13 -70 -11 -4 4 106 161 131 187 7
7 30 35 51 62 44 55 118 106 153 106 12 0 29 -10 38 -23z m-673 -625 c9 -9 7
-15 -7 -26 -29 -21 -93 -38 -115 -31 -23 7 -27 44 -7 64 15 15 112 10 129 -7z"/>
<path d="M2070 1769 c-39 -49 -149 -220 -179 -277 -64 -123 -189 -253 -289
-303 -55 -27 -72 -31 -120 -27 -46 4 -59 10 -79 34 -44 55 -18 134 59 178 31
18 41 19 67 9 18 -6 33 -7 37 -2 6 11 -37 29 -69 29 -31 0 -80 -32 -111 -73
-20 -26 -26 -45 -26 -84 0 -46 4 -54 35 -81 43 -38 87 -47 158 -32 143 29 286
166 411 393 21 37 42 67 47 67 5 0 9 10 9 23 0 30 87 167 106 167 10 0 3 -18
-22 -57 -20 -32 -43 -65 -50 -74 -8 -8 -14 -19 -14 -24 0 -16 68 70 90 113 42
84 1 98 -60 21z"/>
<path d="M630 1298 c0 -7 22 -47 48 -88 234 -364 686 -526 1097 -394 145 47
311 156 413 271 60 67 142 189 142 211 0 24 -20 11 -39 -25 -28 -55 -100 -151
-157 -207 -150 -149 -322 -233 -541 -264 -103 -14 -123 -14 -225 1 -130 18
-206 41 -305 91 -160 80 -320 233 -392 374 -21 41 -41 55 -41 30z"/>
<path d="M716 885 c-41 -27 -68 -81 -62 -123 6 -42 19 -58 62 -78 19 -9 34
-20 34 -25 0 -23 30 -4 64 41 46 60 39 80 -9 27 -22 -24 -43 -37 -60 -37 -31
0 -75 41 -75 69 0 55 68 131 116 131 31 0 64 -37 64 -70 0 -20 5 -30 15 -30
19 0 19 23 0 60 -28 55 -96 71 -149 35z"/>
<path d="M2183 893 c-27 -10 -11 -21 22 -16 60 10 94 -42 65 -98 -15 -27 5
-25 24 3 22 31 20 60 -5 92 -16 20 -29 26 -57 25 -20 0 -43 -3 -49 -6z"/>
<path d="M2130 855 c0 -14 137 -175 148 -175 19 0 15 7 -58 98 -55 69 -90 98
-90 77z"/>
<path d="M760 810 c0 -5 15 -17 33 -26 l32 -17 -24 27 c-25 27 -41 33 -41 16z"/>
<path d="M915 697 c-57 -105 -62 -117 -43 -117 7 1 27 28 43 62 17 34 40 77
53 95 20 31 22 53 4 53 -4 0 -29 -42 -57 -93z"/>
<path d="M1981 764 c-28 -23 -31 -32 -31 -81 0 -49 4 -59 34 -89 29 -29 41
-34 79 -34 62 0 97 35 97 97 0 55 -22 98 -60 118 -43 22 -84 19 -119 -11z
m107 -10 c49 -34 69 -126 35 -156 -45 -39 -99 -28 -133 27 -55 90 17 186 98
129z"/>
<path d="M1040 724 c-7 -16 -23 -58 -36 -93 -13 -36 -29 -70 -34 -76 -11 -13
-3 -25 17 -25 7 0 13 6 13 14 0 8 16 54 35 102 23 58 32 91 26 97 -7 7 -14 0
-21 -19z"/>
<path d="M1090 721 c0 -6 9 -11 19 -11 10 0 22 -7 25 -16 3 -8 10 -12 16 -9
15 9 12 22 -7 28 -10 2 -26 8 -35 12 -11 4 -18 3 -18 -4z"/>
<path d="M1845 693 c4 -10 18 -60 33 -110 17 -61 31 -93 40 -93 9 0 12 6 9 18
-4 9 -18 59 -33 110 -18 60 -33 92 -42 92 -9 0 -12 -6 -7 -17z"/>
<path d="M1241 578 c-13 -56 -26 -108 -28 -115 -3 -7 2 -13 10 -13 18 0 19 2
43 123 17 87 29 102 54 72 7 -8 16 -12 21 -9 17 10 9 21 -18 27 -16 3 -35 8
-44 12 -13 5 -20 -13 -38 -97z"/>
<path d="M1727 674 c-4 -4 -3 -12 1 -18 5 -6 19 -49 31 -96 32 -120 30 -115
42 -103 7 7 1 44 -19 113 -27 97 -39 120 -55 104z"/>
<path d="M1520 635 c-29 -31 -21 -52 31 -76 99 -47 113 -55 116 -66 3 -6 -5
-21 -16 -32 -29 -29 -76 -27 -106 4 -15 17 -26 22 -30 15 -12 -20 25 -48 68
-52 51 -6 95 14 103 46 9 39 -10 59 -83 86 -51 19 -69 31 -71 46 -2 16 5 25
28 34 28 12 34 11 60 -9 34 -25 40 -26 40 -8 0 18 -43 37 -84 37 -22 0 -40 -8
-56 -25z"/>
</g>
</svg>
